PathFileType	4	(X/Y/Z)	Patient4_TMGait_0pt2_03_left_07.trc.trc
DataRate	CameraRate	NumFrames	NumMarkers	Units	OrigDataRate	OrigDataStartFrame	OrigNumFrames
46.204620462046	46.204620462046	4	33	mm	46.204620462046	53	       141
Frame#	Time	Sacral			L.Shoulder			Chest			R.Shoulder			Neck			R.ASIS			L.ASIS			R.Thigh.Superior			R.Thigh.Lateral			R.Thigh.Inferior			R.Patella			L.Thigh.Superior			L.Thigh.Lateral			L.Thigh.Inferior			L.Patella			L.Shank.Superior			L.Shank.Lateral			L.Shank.Inferior			R.Shank.Superior			R.Shank.Lateral			R.Shank.Inferior			R.Heel			R.Midfoot.Superior			R.Midfoot.Lateral			R.Toe			L.Heel			L.Midfoot.Lateral			L.Midfoot.Superior			L.Toe			L.Elbow			L.Wrist			R.Elbow			R.Wrist			
		X1	Y1	Z1	X2	Y2	Z2	X3	Y3	Z3	X4	Y4	Z4	X5	Y5	Z5	X6	Y6	Z6	X7	Y7	Z7	X8	Y8	Z8	X9	Y9	Z9	X10	Y10	Z10	X11	Y11	Z11	X12	Y12	Z12	X13	Y13	Z13	X14	Y14	Z14	X15	Y15	Z15	X16	Y16	Z16	X17	Y17	Z17	X18	Y18	Z18	X19	Y19	Z19	X20	Y20	Z20	X21	Y21	Z21	X22	Y22	Z22	X23	Y23	Z23	X24	Y24	Z24	X25	Y25	Z25	X26	Y26	Z26	X27	Y27	Z27	X28	Y28	Z28	X29	Y29	Z29	X30	Y30	Z30	X31	Y31	Z31	X32	Y32	Z32	X33	Y33	Z33	

53	14.915428571429	780.254519281739	995.967304677083	421.465523505013	984.979940490545	1417.876674085762	243.179934179023	1079.139449345170	1343.074348187736	406.242764107280	998.855786065211	1419.332348829536	578.773143882259	961.154686395184	1481.447212240673	402.141281303200	1007.335711576475	928.216909341391	543.582442473163	999.739629083691	945.954302320415	269.463452761114	1074.390551897842	741.217251699597	511.087214740518	1019.582786131481	626.637271195763	585.706753131341	1099.192558473641	575.275899355193	503.608264954122	1105.063510921241	464.165063448804	526.978669907620	1065.922866821959	746.670167001507	310.624683895178	998.927236762448	617.517404439136	251.865861530226	1089.334949501155	554.477427375774	324.832718547394	1097.066383995588	480.063329317992	334.278318619753	1060.335446709713	404.254051453749	326.977313919791	962.371456511985	299.437065043521	270.900909218937	992.317115835249	185.294911577813	345.962251846419	1026.885507094713	396.282156791726	543.611047492878	913.870321862092	363.295287726658	622.672518805643	887.662548152960	254.293685514258	577.413775390909	678.790412427085	194.615124205004	585.800496289981	854.835020775937	138.762483593227	596.106125557761	751.414991165924	134.493253620614	645.640373794662	925.305991878084	32.704692679751	605.109425050011	847.705115771135	38.861584062247	380.162000181501	923.781379316424	35.554816509852	301.556980530198	1007.129031055772	95.486304953671	332.236465377081	1136.007623021143	41.599184890962	305.712521803063	1047.862740042689	1087.914753710920	90.421705206324	1268.394722162460	946.477141642547	92.817215798904	984.974889014721	1062.302234182139	690.102164005898	1098.417796685971	831.618211119479	674.464732885280	
54	14.937071428571	778.951848621145	993.341369178845	418.381203425542	985.723390205394	1416.476317621491	242.952686943796	1077.803257958110	1341.212541546641	406.918736727141	995.050405947804	1416.401485622005	578.889746307785	960.009966934121	1479.362579251977	402.042854477626	1005.757916082071	926.553886942603	541.917502647704	999.796741008828	944.260087235183	267.628834326954	1077.661713099680	743.024139681858	507.832520745204	1026.708294458957	627.011619044972	582.568342442843	1107.280662140664	577.797026175892	499.776203914206	1115.630991483062	465.879528081159	523.372765557772	1066.974918599309	745.245323130947	309.311520767827	1000.615676063466	615.572585589088	251.157288079219	1090.915244966437	553.088650232974	324.856583364025	1098.899272895088	478.374868171834	334.595070743765	1061.046227566200	402.310712022569	327.290843757326	961.881814590917	298.689479195054	270.942722081322	989.714919645774	184.219012687023	346.132820988512	1036.684377093169	397.440009157255	540.151403016721	922.219275677124	366.007003022068	618.211144238290	895.418226024383	256.774044174604	573.574086415338	685.661374948476	199.637229189965	579.918347936471	861.295154623628	141.827763843348	593.216890528810	756.846661236498	139.180805365817	641.401022220800	930.603301943743	33.034439585343	604.578090320822	843.415021541848	38.897419406920	380.081252219864	919.515124555777	35.552485681854	301.497779436282	1002.909427649297	95.346830871439	332.337392923803	1131.753348434310	41.408733891226	305.665922570091	1056.660334469987	1090.126892561689	87.796059929804	1286.473596119969	964.767545201177	92.131882302831	960.872951089583	1060.481124034950	688.287308204732	1048.567692989111	817.276851407470	676.254349934435	
55	14.958714285714	777.698146535586	991.188779594491	415.587706532785	986.605940588716	1415.456280492899	243.153989746847	1076.481956579364	1339.729667990277	408.050272478371	991.165220078474	1413.963579442523	579.315145792940	958.913317145302	1477.660125308969	402.315148320939	1004.044677247610	925.238126873106	540.781316051160	999.970757847679	942.898192922849	266.318873788191	1080.093879500211	744.921396877851	505.371084222356	1032.482410413875	627.770304383228	580.251345193565	1113.883496583297	580.483547347752	496.878354206028	1124.688199588308	468.140263438868	520.653347707414	1067.734437566661	743.937914004102	308.424425620340	1001.776424498288	613.899128753266	250.676810257282	1091.818484447154	551.784184251682	325.054402510228	1099.923872196574	476.864538929270	335.087577231120	1061.093145550286	400.601734775267	327.712685616401	960.927584031025	298.034989549592	271.036702704433	986.888098261418	183.268617781081	346.322142343431	1045.603004780196	398.822043210588	537.566982335572	930.144081327733	367.724636049754	614.582863661129	903.896523133582	258.105945183913	570.437205147188	694.059376514411	200.961836622597	574.667420757797	869.706334772973	143.637635594325	590.906215935663	764.485087080461	141.250665246487	637.788435552958	939.109544050459	33.588222759634	604.578939393085	839.107566472788	38.925134816797	379.994607468971	915.238241783266	35.546543344965	301.431277736466	998.673405515662	95.220473233533	332.421471609799	1127.486429641058	41.242880292497	305.621079501706	1065.184166349198	1093.030659042244	85.418927094563	1303.057761351879	984.337731754693	91.868651722669	937.276088414854	1060.514937077357	686.570283179189	999.929373848765	808.235900086662	677.007679154058	
56	14.980357142857	776.490766513252	989.721602227773	413.054358070715	987.705585530316	1414.958622644664	243.752286934865	1075.208243397397	1338.783197775429	409.631954009518	987.223715241639	1412.241129792323	580.002241338335	957.904531903532	1476.512643289630	402.899487569504	1002.134781039008	924.436797364152	540.214433346819	1000.270802416832	942.011326034950	265.574620035153	1081.575512668911	746.962785817674	503.835419367251	1036.660752111843	628.961295888516	578.867983176209	1118.800275285636	583.316580479562	495.102726440285	1131.986617540367	470.978350865083	519.031358715893	1068.049133639779	742.820851586181	307.971445771898	1002.173296138063	612.633321936385	250.380134582996	1091.760330018958	550.631833472867	325.371400562296	1099.812906043047	475.627291887474	335.686081181778	1060.208350960047	399.239414483102	328.177831501042	959.315195055631	297.510734832891	271.135592793410	983.736778299090	182.504558843063	346.502704709080	1053.479247959046	400.473652343237	536.057544470517	937.600844182796	368.361576985140	612.036449444403	913.190428801955	258.227675334699	568.265709401937	704.246377457968	198.351099822895	570.378099158734	880.309197055431	144.085322584292	589.451571614917	774.616556426286	140.500446718632	635.104248988269	951.122504451615	34.379206831955	605.334709860161	834.776935963492	38.940699815819	379.902593549580	910.943250093611	35.534584244457	301.356634146129	994.409712582700	95.115057552757	332.477351637145	1123.199990350200	41.111645585216	305.580379107054	1073.454176749634	1096.685234273162	83.336475911503	1318.063386927330	1004.979842890069	92.071885011041	914.387144603258	1062.457212476033	684.953385207437	953.578568102148	804.227561268982	676.808951299240	
